<?xml version="1.0" encoding="utf-8"?>
<!-- Generator: Adobe Illustrator 24.0.2, SVG Export Plug-In . SVG Version: 6.00 Build 0)  -->
<svg version="1.1" xmlns="http://www.w3.org/2000/svg" xmlns:xlink="http://www.w3.org/1999/xlink" x="0px" y="0px"
	 viewBox="0 0 706.78 571.19" style="enable-background:new 0 0 706.78 571.19;" xml:space="preserve">
<style type="text/css">
	.st0{fill:#ED1C24;}
	.st1{fill:#FFFFFF;}
</style>
<g id="Layer_1">
</g>
<g id="Layer_2">
	<g>
		<path class="st0" d="M272.37,373.39c0,0-28.36-7.19-39.29-13.19c0,0-21.06-22.38-21.06-44.76c0-22.38,19.44-39.57,34.84-53.55
			c0,0,0.81-26.38,26.33-26.38s24.71,29.18,23.9,31.97c0,0-5.67,1.6-25.93,31.57C250.9,329.03,247.25,349.81,272.37,373.39z"/>
		<path class="st0" d="M422.25,373.39c0,0,28.36-7.19,39.29-13.19c0,0,21.06-22.38,21.06-44.76c0-22.38-19.44-39.57-34.84-53.55
			c0,0-0.81-26.38-26.33-26.38c-25.52,0-24.71,29.18-23.9,31.97c0,0,5.67,1.6,25.93,31.57
			C443.72,329.03,447.36,349.81,422.25,373.39z"/>
		<path class="st0" d="M353.55,325.41c-2.71,0.88-7.54,1.14-10.29,0.42c-6.8-1.79-19.72-7.96-20.66-25.18
			c-1-18.36,20.25-15.99,29.57-15.99c9.32,0,19.85,5.2,19.85,15.59C372.02,309.22,363.86,322.07,353.55,325.41z"/>
		<path class="st0" d="M534,241.89c-1.64-3.85-1.73-8.16-0.2-12.06c4.39-11.16,12.81-36.74,12.81-68.67
			c0-43.16-12.15-68.34-15.8-71.54c-3.65-3.2-63.19,6.79-106.13,39.17c0,0-35.24-15.99-77.17-15.99
			c-42.33,0-77.17,15.99-77.17,15.99C227.4,96.42,167.86,86.43,164.21,89.63c-3.65,3.2-15.8,28.38-15.8,71.54
			c0,31.92,8.42,57.51,12.81,68.67c1.53,3.89,1.45,8.21-0.2,12.06c-11.37,26.61-13.71,60.7-12.2,65.15
			c1.62,4.8,23.09,19.98,23.09,19.98s-6.08-23.98,4.05-42.76c10.13-18.78,33.22-23.58,39.7-23.18c6.48,0.4,9.05-5.06,9.32-11.19
			c-0.81-5.99,13.37-39.17,48.2-39.17s46.31,31.17,48.2,39.43c1.89,8.26,5.67,10.92,14.85,10.92c9.18,0,8.3,0,11.27,0
			c2.97,0,2.09,0,11.27,0s12.96-2.66,14.85-10.92c1.89-8.26,13.37-39.43,48.2-39.43c34.84,0,49.02,33.17,48.2,39.17
			c0.27,6.13,2.84,11.59,9.32,11.19c6.48-0.4,29.57,4.4,39.7,23.18c10.13,18.78,4.05,42.76,4.05,42.76s21.47-15.19,23.09-19.98
			C547.71,302.59,545.37,268.5,534,241.89z"/>
		<rect x="110.2" y="385.14" class="st0" width="486.37" height="96.98"/>
		<path class="st1" d="M120.3,435.65c0-7.86-0.14-13.03-0.42-17.64h13.86l0.59,9.91h0.4c2.67-7.83,8.98-11.11,14-11.11
			c1.49,0,2.25,0.04,3.45,0.31v15.65c-1.25-0.27-2.55-0.47-4.36-0.47c-5.92,0-9.97,3.24-11.06,8.45c-0.2,1.06-0.3,2.35-0.3,3.7
			v27.08H120.3V435.65z"/>
		<path class="st1" d="M176.41,450.12c0.48,6.91,7.1,10.19,14.62,10.19c5.46,0,9.93-0.75,14.28-2.27l2.18,11.26
			c-5.37,2.26-11.84,3.38-18.8,3.38c-17.58,0-27.67-10.56-27.67-27.24c0-13.6,8.22-28.64,26.15-28.64
			c16.81,0,23.17,13.48,23.17,26.73c0,2.9-0.29,5.36-0.58,6.59H176.41z M195.34,438.72c0.03-4.01-1.71-10.85-9.05-10.85
			c-6.82,0-9.58,6.42-10.02,10.85H195.34z"/>
		<path class="st1" d="M272.31,393.89v61.66c0,6.08,0.2,12.41,0.42,15.99h-14.34l-0.68-7.84h-0.22c-3.27,6-9.55,9.04-16.24,9.04
			c-12.24,0-22.15-10.85-22.15-27.48c-0.08-17.97,10.86-28.45,23.22-28.45c6.41,0,11.32,2.35,13.64,6.05h0.21v-28.96H272.31z
			 M256.18,440.73c0-0.93-0.03-2.06-0.21-3.02c-0.92-4.47-4.44-8.13-9.35-8.13c-7.39,0-11.14,6.76-11.14,15.2
			c0,9.01,4.3,14.7,11.02,14.7c4.59,0,8.35-3.28,9.33-7.97c0.27-1.15,0.34-2.43,0.34-3.76V440.73z"/>
		<path d="M286.03,398.81c5.25-0.86,12.64-1.55,23.03-1.55c10.47,0,18.04,1.99,23.09,5.95c4.83,3.66,8,9.81,8,17.04
			c0,7.23-2.39,13.38-6.89,17.45c-5.83,5.35-14.52,7.82-24.51,7.82c-2.26,0-4.28-0.15-5.82-0.38v26.39h-16.91V398.81z
			 M302.94,432.24c1.42,0.32,3.18,0.44,5.67,0.44c9.06,0,14.66-4.48,14.66-11.95c0-6.78-4.75-10.82-13.36-10.82
			c-3.37,0-5.72,0.27-6.97,0.55V432.24z"/>
		<path d="M378.89,471.54l-0.95-5.32h-0.34c-3.38,4.26-8.68,6.52-14.82,6.52c-10.56,0-16.77-7.83-16.77-16.38
			c0-13.94,12.09-20.55,30.45-20.53v-0.68c0-2.84-1.48-6.91-9.5-6.89c-5.29,0-10.84,1.86-14.3,4l-2.97-10.65
			c3.61-2.13,10.69-4.8,20.17-4.8c17.27,0,22.74,10.53,22.74,23.1v18.67c0,5.1,0.26,9.96,0.83,12.96H378.89z M376.94,446.23
			c-8.49-0.05-15.05,2.06-15.05,8.44c0,4.31,2.73,6.41,6.4,6.41c3.95,0,7.28-2.72,8.34-6.15c0.25-0.86,0.3-1.9,0.3-2.84V446.23z"/>
		<path d="M407.46,435.11c0-6.67-0.2-12.3-0.42-17.1h13.99l0.75,7.42h0.34c2.09-3.45,7.37-8.62,16.03-8.62
			c10.6,0,18.57,7.29,18.57,23.05v31.68h-16.15v-29.67c0-6.9-2.39-11.62-8.21-11.62c-4.44,0-7.06,3.21-8.18,6.28
			c-0.41,1.04-0.56,2.63-0.56,4.11v30.88h-16.15V435.11z"/>
		<path d="M524.06,393.89v61.66c0,6.08,0.2,12.41,0.42,15.99h-14.34l-0.68-7.84h-0.22c-3.27,6-9.55,9.04-16.24,9.04
			c-12.24,0-22.15-10.85-22.15-27.48c-0.08-17.97,10.86-28.45,23.22-28.45c6.41,0,11.32,2.35,13.64,6.05h0.21v-28.96H524.06z
			 M507.93,440.73c0-0.93-0.03-2.06-0.21-3.02c-0.92-4.47-4.44-8.13-9.35-8.13c-7.39,0-11.13,6.76-11.13,15.2
			c0,9.01,4.3,14.7,11.02,14.7c4.59,0,8.35-3.28,9.33-7.97c0.27-1.15,0.34-2.43,0.34-3.76V440.73z"/>
		<path d="M568.63,471.54l-0.95-5.32h-0.34c-3.38,4.26-8.68,6.52-14.82,6.52c-10.56,0-16.77-7.83-16.77-16.38
			c0-13.94,12.09-20.55,30.45-20.53v-0.68c0-2.84-1.48-6.91-9.5-6.89c-5.29,0-10.84,1.86-14.3,4l-2.97-10.65
			c3.61-2.13,10.68-4.8,20.17-4.8c17.27,0,22.74,10.53,22.74,23.1v18.67c0,5.1,0.26,9.96,0.83,12.96H568.63z M566.68,446.23
			c-8.49-0.05-15.05,2.06-15.05,8.44c0,4.31,2.73,6.41,6.4,6.41c3.95,0,7.28-2.72,8.34-6.15c0.25-0.86,0.3-1.9,0.3-2.84V446.23z"/>
	</g>
</g>
</svg>
